<svg id="Warstwa_1" data-name="Warstwa 1" xmlns="http://www.w3.org/2000/svg" viewBox="0 0 124 123.63"><defs><style>.cls-1{fill:#2e368e;}.cls-2{fill:#0d72b9;}</style></defs><title>Obszar roboczy 10 kopia</title><path class="cls-1" d="M123.25,107.35,98.43,82.52h16.29A2.54,2.54,0,0,0,117.26,80V68.57A12.21,12.21,0,0,0,111.09,58a8,8,0,0,0,1.43-4.58V46.17a8.09,8.09,0,0,0-8.07-8.08h-2.79a8.65,8.65,0,0,0-5.07,1.64,42,42,0,0,0-75.8-.24,8,8,0,0,0-4.53-1.4H13.48a8.75,8.75,0,0,0-8.74,8.74v5.9A8.72,8.72,0,0,0,6.4,57.84,12.21,12.21,0,0,0,0,68.57V80a2.55,2.55,0,0,0,2.55,2.54H24.66a42,42,0,0,0,54.6,11.91l28.46,28.45a2.53,2.53,0,0,0,3.6,0L123.25,111A2.53,2.53,0,0,0,123.25,107.35ZM101.66,43.19h2.79a3,3,0,0,1,3,3v7.22a3,3,0,0,1-3,3h-2.79a3.81,3.81,0,0,1-1-.15,41.68,41.68,0,0,0-2-11.39A3.64,3.64,0,0,1,101.66,43.19Zm-1.15,18.27h4.55a7.12,7.12,0,0,1,7.11,7.11v8.86H95.8A41.91,41.91,0,0,0,100.51,61.46ZM9.84,46.83a3.64,3.64,0,0,1,3.64-3.64h2.78a3,3,0,0,1,2.48,1.33,42.08,42.08,0,0,0-2.12,11.82,2.1,2.1,0,0,1-.36,0H13.48a3.65,3.65,0,0,1-3.64-3.64ZM5.1,77.43V68.57a7.11,7.11,0,0,1,7.1-7.11h4.56a41.54,41.54,0,0,0,4.71,16Zm104.42,40.05L81.46,89.42a2.55,2.55,0,0,0-1.8-.75,2.5,2.5,0,0,0-1.36.4A36.94,36.94,0,1,1,89.56,78a2.54,2.54,0,0,0,.33,3.19l28,28Z"/><path class="cls-2" d="M58.63,27.22A30.58,30.58,0,1,0,89.21,57.79,30.6,30.6,0,0,0,58.63,27.22Zm0,56.05a25.42,25.42,0,0,1-19.29-8.86c.6-4.83,5-7.39,9.87-8L56.48,77.8a2.55,2.55,0,0,0,4.3,0l7.28-11.43c4.9.65,9.27,3.21,9.87,8A25.46,25.46,0,0,1,58.63,83.27Zm.83-22.17H57.8c-4.09,0-5.92-3.48-5.92-6.94V49.7c0-3.45,1.83-6.94,5.92-6.94h1.66c4.09,0,5.92,3.49,5.92,6.94v4.46C65.38,57.62,63.55,61.1,59.46,61.1Zm2.67,5.1-3.5,5.49L55.14,66.2Zm6.39-4.92a13.11,13.11,0,0,0,2-7.12V49.7c0-7-4.64-12-11-12H57.8c-6.38,0-11,5.07-11,12v4.46a13.2,13.2,0,0,0,2,7.12c-6,.72-10.63,3.59-12.94,7.8a25.48,25.48,0,1,1,45.67,0C79.16,64.87,74.52,62,68.52,61.28Z"/><path class="cls-2" d="M58.63,9.94a2.55,2.55,0,0,0,2.55-2.55V2.55a2.55,2.55,0,1,0-5.1,0V7.39A2.55,2.55,0,0,0,58.63,9.94Z"/><path class="cls-2" d="M81.41,16a2.55,2.55,0,0,0,3.48-.93l2.42-4.19A2.55,2.55,0,0,0,82.9,8.37l-2.42,4.19A2.55,2.55,0,0,0,81.41,16Z"/><path class="cls-2" d="M32.37,15.11a2.55,2.55,0,0,0,4.41-2.55L34.36,8.37A2.55,2.55,0,1,0,30,10.92Z"/></svg>