<svg id="Warstwa_1" data-name="Warstwa 1" xmlns="http://www.w3.org/2000/svg" viewBox="0 0 124 123.63"><defs><style>.cls-1{fill:#fff;}.cls-2{opacity:0.8;}</style></defs><title>Obszar roboczy 10 kopia 4</title><path class="cls-1" d="M115.79,68.08a43.36,43.36,0,0,0-33.72-38V24.6A7.3,7.3,0,0,0,80.3,10.21H64.84A7.3,7.3,0,0,0,63.07,24.6v5.47a43.45,43.45,0,0,0-24.8,15.78H22.79a2.15,2.15,0,0,0,0,4.3H35.34a43.7,43.7,0,0,0-3.81,8.26H8.15a2.15,2.15,0,1,0,0,4.29H30.32A43.56,43.56,0,0,0,29.25,71h-9.5a2.15,2.15,0,0,0,0,4.3h9.57a43.78,43.78,0,0,0,1.34,8.26H16.74a2.15,2.15,0,1,0,0,4.29H32a43.41,43.41,0,0,0,36.28,27.79q2.13.21,4.26.21a43.58,43.58,0,0,0,23.69-7,2.15,2.15,0,0,0-2.35-3.6,39.11,39.11,0,1,1,11.52-11.54A2.15,2.15,0,1,0,109,96,43.56,43.56,0,0,0,115.79,68.08Zm-54-50.57a3,3,0,0,1,3-3H80.3a3,3,0,1,1,0,6H64.84A3,3,0,0,1,61.83,17.51Zm5.54,11.82V24.82h10.4v4.51A44.12,44.12,0,0,0,67.37,29.33Z"/><path class="cls-1" d="M95.57,70.28h-2a2.15,2.15,0,0,0,0,4.29h2a2.15,2.15,0,1,0,0-4.29Z"/><path class="cls-1" d="M51.62,70.22h-2a2.15,2.15,0,0,0,0,4.3h2a2.15,2.15,0,0,0,0-4.3Z"/><path class="cls-1" d="M72.63,53.57a2.15,2.15,0,0,0,2.15-2.15v-2a2.15,2.15,0,0,0-4.3,0v2A2.15,2.15,0,0,0,72.63,53.57Z"/><path class="cls-1" d="M72.58,91.23a2.15,2.15,0,0,0-2.15,2.15v2a2.15,2.15,0,0,0,4.3,0v-2A2.15,2.15,0,0,0,72.58,91.23Z"/><g class="cls-2"><path class="cls-1" d="M101.77,99.42a2.15,2.15,0,1,0,1.52.63A2.18,2.18,0,0,0,101.77,99.42Z"/><path class="cls-1" d="M72.6,39.07A33.33,33.33,0,1,0,105.93,72.4,33.37,33.37,0,0,0,72.6,39.07Zm0,62.36a29,29,0,1,1,29-29A29.06,29.06,0,0,1,72.6,101.43Z"/><path class="cls-1" d="M86.19,55.77,75.55,66.41a6.65,6.65,0,0,0-5.9,0l-4.76-4.76a2.15,2.15,0,0,0-3,3l4.77,4.76a6.68,6.68,0,1,0,12,0L88.92,59.12h0l.31-.31a2.15,2.15,0,1,0-3-3Zm-13.59,19A2.38,2.38,0,1,1,75,72.4,2.39,2.39,0,0,1,72.6,74.78Z"/><path class="cls-1" d="M8.15,83.51a2.15,2.15,0,1,0,1.52.63A2.16,2.16,0,0,0,8.15,83.51Z"/></g></svg>