<svg id="Warstwa_1" data-name="Warstwa 1" xmlns="http://www.w3.org/2000/svg" viewBox="0 0 124 123.63"><defs><style>.cls-1{fill:#2e368e;}.cls-2{fill:#0d72b9;}</style></defs><title>Obszar roboczy 10 kopia 2</title><path class="cls-1" d="M115,54.85a9.25,9.25,0,0,0-3.22-6.36l-9.17-7.86V18.3a3.11,3.11,0,0,0-3.11-3.11H87.05A3.07,3.07,0,0,0,84,18.3v6.36L68.27,11.27a9.26,9.26,0,0,0-12.11,0L12.26,48.49a9.3,9.3,0,0,0-1,13.14,9.41,9.41,0,0,0,10.22,2.71v47.54a3.06,3.06,0,0,0,3.06,3.1H99.47a3.1,3.1,0,0,0,3.11-3.1V64.34A9.3,9.3,0,0,0,115,54.85ZM90.16,21.4h6.25V35.31L90.16,30ZM74.67,108.77H49.37V83.89h25.3Zm21.74,0H80.84V80.82a3.1,3.1,0,0,0-3.11-3.1H46.27a3.07,3.07,0,0,0-3.07,3.1v28H27.63V59.88L62.2,30.56,96.41,59.85v48.92ZM108,57.58a3.1,3.1,0,0,1-4.38.34L64.23,24.12a3.11,3.11,0,0,0-4,0L20.34,57.92a3.11,3.11,0,0,1-4.05-4.71L60.19,16a3.1,3.1,0,0,1,4,0L107.7,53.21A3.09,3.09,0,0,1,108,57.58Z"/><path class="cls-2" d="M71.52,46.25h-19a3.07,3.07,0,0,0-3.07,3.1V68a3.07,3.07,0,0,0,3.07,3.11h19A3.11,3.11,0,0,0,74.63,68V49.35A3.1,3.1,0,0,0,71.52,46.25ZM68.46,64.88H55.58V52.46H68.46Z"/><circle class="cls-2" cx="65.31" cy="93.24" r="3.11"/></svg>