<?xml version="1.0" encoding="UTF-8" standalone="no"?>
<!-- Created with Inkscape (http://www.inkscape.org/) -->

<svg
   xmlns:dc="http://purl.org/dc/elements/1.1/"
   xmlns:cc="http://creativecommons.org/ns#"
   xmlns:rdf="http://www.w3.org/1999/02/22-rdf-syntax-ns#"
   xmlns:svg="http://www.w3.org/2000/svg"
   xmlns="http://www.w3.org/2000/svg"
   xmlns:sodipodi="http://sodipodi.sourceforge.net/DTD/sodipodi-0.dtd"
   xmlns:inkscape="http://www.inkscape.org/namespaces/inkscape"
   width="43.744488mm"
   height="43.612892mm"
   viewBox="0 0 43.744488 43.612892"
   version="1.1"
   id="svg6440"
   inkscape:version="0.92.4 (5da689c313, 2019-01-14)"
   sodipodi:docname="lupa.svg">
  <defs
     id="defs6434">
    <clipPath
       clipPathUnits="userSpaceOnUse"
       id="clipPath624">
      <path
         d="M 0,3272 H 1920 V 0 H 0 Z"
         id="path622"
         inkscape:connector-curvature="0" />
    </clipPath>
  </defs>
  <sodipodi:namedview
     id="base"
     pagecolor="#ffffff"
     bordercolor="#666666"
     borderopacity="1.0"
     inkscape:pageopacity="0.0"
     inkscape:pageshadow="2"
     inkscape:zoom="0.35"
     inkscape:cx="-97.333265"
     inkscape:cy="-171.86763"
     inkscape:document-units="mm"
     inkscape:current-layer="layer1"
     showgrid="false"
     inkscape:window-width="1024"
     inkscape:window-height="738"
     inkscape:window-x="0"
     inkscape:window-y="84"
     inkscape:window-maximized="1" />
  <metadata
     id="metadata6437">
    <rdf:RDF>
      <cc:Work
         rdf:about="">
        <dc:format>image/svg+xml</dc:format>
        <dc:type
           rdf:resource="http://purl.org/dc/dcmitype/StillImage" />
        <dc:title></dc:title>
      </cc:Work>
    </rdf:RDF>
  </metadata>
  <g
     inkscape:label="Layer 1"
     inkscape:groupmode="layer"
     id="layer1"
     transform="translate(-0.80633106,-59.74713)">
    <g
       transform="matrix(0.35277777,0,0,-0.35277777,-203.09922,806.86483)"
       id="g618">
      <g
         id="g620"
         clip-path="url(#clipPath624)">
        <g
           id="g626"
           transform="translate(687.52,2000.3379)">
          <path
             d="m 0,0 -28.057,28.057 c -0.492,0.491 -1.145,0.746 -1.802,0.746 -0.469,0 -0.94,-0.129 -1.358,-0.393 -5.884,-3.709 -12.686,-5.67 -19.671,-5.67 -20.371,0 -36.944,16.573 -36.944,36.944 0,20.37 16.573,36.943 36.944,36.943 20.37,0 36.943,-16.573 36.943,-36.943 0,-7.209 -2.079,-14.196 -6.012,-20.204 -0.661,-1.009 -0.523,-2.343 0.33,-3.196 L 8.329,8.328 Z m -104.424,40.047 v 8.858 c 0,3.919 3.188,7.108 7.107,7.108 h 4.552 c 0.497,-5.725 2.147,-11.124 4.716,-15.966 z m 4.74,30.598 c 0,2.007 1.634,3.64 3.642,3.64 h 2.786 c 1.033,0 1.943,-0.528 2.478,-1.329 -1.247,-3.737 -1.981,-7.707 -2.121,-11.824 -0.118,-0.015 -0.236,-0.024 -0.357,-0.024 h -2.786 c -2.008,0 -3.642,1.633 -3.642,3.641 z m 90.67,-14.632 h 4.554 c 3.919,0 7.107,-3.189 7.107,-7.108 v -8.858 h -16.364 c 2.622,4.952 4.217,10.367 4.703,15.966 m 1.158,18.272 h 2.786 c 1.641,0 2.977,-1.334 2.977,-2.975 v -7.225 c 0,-1.642 -1.335,-2.977 -2.977,-2.977 h -2.786 c -0.357,0 -0.701,0.054 -1.026,0.15 -0.147,3.958 -0.843,7.777 -2.014,11.385 0.651,0.989 1.77,1.642 3.04,1.642 M 13.734,10.13 -11.088,34.951 H 5.195 c 1.408,0 2.548,1.141 2.548,2.548 v 11.406 c 0,4.535 -2.489,8.497 -6.17,10.601 0.9,1.303 1.429,2.88 1.429,4.579 v 7.225 c 0,4.451 -3.621,8.071 -8.072,8.071 h -2.786 c -1.893,0 -3.645,-0.608 -5.077,-1.634 -6.769,14.165 -21.237,23.976 -37.956,23.976 -16.623,0 -31.023,-9.7 -37.84,-23.737 -1.292,0.879 -2.85,1.395 -4.527,1.395 h -2.786 c -4.818,0 -8.737,-3.919 -8.737,-8.736 v -5.896 c 0,-1.908 0.616,-3.674 1.658,-5.112 -3.808,-2.068 -6.399,-6.103 -6.399,-10.732 V 37.499 c 0,-1.407 1.141,-2.548 2.548,-2.548 h 22.113 c 7.652,-10.481 20.028,-17.306 33.971,-17.306 7.262,0 14.352,1.863 20.631,5.406 L -1.802,-5.405 c 0.498,-0.497 1.15,-0.746 1.802,-0.746 0.652,0 1.304,0.249 1.801,0.746 L 13.733,6.526 c 0.996,0.995 0.996,2.609 10e-4,3.604"
             style="fill:#2e368e;fill-opacity:1;fill-rule:nonzero;stroke:none"
             id="path628"
             inkscape:connector-curvature="0" />
        </g>
        <g
           id="g630"
           transform="translate(646.5186,2056.5303)">
          <path
             d="m 0,0 c 1.248,1.955 1.96,4.391 1.96,7.122 v 4.458 c 0,6.976 -4.634,12.039 -11.019,12.039 h -1.656 c -6.385,0 -11.019,-5.063 -11.019,-12.039 V 7.122 c 0,-2.731 0.713,-5.167 1.96,-7.122 -5.997,-0.719 -10.637,-3.586 -12.948,-7.8 -1.691,3.405 -2.643,7.238 -2.643,11.291 0,14.049 11.429,25.478 25.478,25.478 14.049,0 25.478,-11.429 25.478,-25.478 0,-4.053 -0.952,-7.886 -2.643,-11.291 C 10.637,-3.585 5.998,-0.718 0,0 m -6.393,-4.917 -3.494,-5.488 -3.494,5.488 z m -2.666,5.096 h -1.656 c -4.092,0 -5.924,3.487 -5.924,6.943 v 4.458 c 0,3.456 1.832,6.943 5.924,6.943 h 1.656 c 4.092,0 5.924,-3.487 5.924,-6.943 V 7.122 c 0,-3.456 -1.832,-6.943 -5.924,-6.943 m -0.828,-22.166 c -7.703,0 -14.617,3.436 -19.293,8.856 0.597,4.831 4.97,7.396 9.867,8.045 l 7.277,-11.433 c 0.467,-0.735 1.278,-1.179 2.149,-1.179 0.871,0 1.682,0.444 2.15,1.179 L -0.46,-5.086 C 4.437,-5.735 8.81,-8.3 9.407,-13.131 4.73,-18.551 -2.184,-21.987 -9.887,-21.987 m 0,56.051 c -16.858,0 -30.573,-13.714 -30.573,-30.573 0,-16.858 13.715,-30.573 30.573,-30.573 16.858,0 30.574,13.715 30.574,30.573 0,16.859 -13.716,30.573 -30.574,30.573"
             style="fill:#0d72b9;fill-opacity:1;fill-rule:nonzero;stroke:none"
             id="path632"
             inkscape:connector-curvature="0" />
        </g>
        <g
           id="g634"
           transform="translate(636.6318,2107.877)">
          <path
             d="m 0,0 c 1.407,0 2.547,1.142 2.547,2.548 v 4.841 c 0,1.407 -1.14,2.548 -2.547,2.548 -1.407,0 -2.548,-1.141 -2.548,-2.548 V 2.548 C -2.548,1.142 -1.407,0 0,0"
             style="fill:#0d72b9;fill-opacity:1;fill-rule:nonzero;stroke:none"
             id="path636"
             inkscape:connector-curvature="0" />
        </g>
        <g
           id="g638"
           transform="translate(659.4131,2101.7734)">
          <path
             d="m 0,0 c 0.401,-0.231 0.839,-0.342 1.271,-0.342 0.881,0 1.737,0.457 2.209,1.275 L 5.901,5.125 C 6.604,6.344 6.187,7.901 4.968,8.605 3.749,9.309 2.191,8.891 1.488,7.673 L -0.932,3.48 C -1.636,2.262 -1.218,0.703 0,0"
             style="fill:#0d72b9;fill-opacity:1;fill-rule:nonzero;stroke:none"
             id="path640"
             inkscape:connector-curvature="0" />
        </g>
        <g
           id="g642"
           transform="translate(610.3696,2102.7061)">
          <path
             d="m 0,0 c 0.472,-0.817 1.328,-1.274 2.209,-1.274 0.432,0 0.87,0.11 1.271,0.341 1.219,0.704 1.637,2.262 0.933,3.481 L 1.992,6.74 C 1.289,7.959 -0.27,8.377 -1.488,7.673 -2.707,6.969 -3.124,5.411 -2.42,4.192 Z"
             style="fill:#0d72b9;fill-opacity:1;fill-rule:nonzero;stroke:none"
             id="path644"
             inkscape:connector-curvature="0" />
        </g>
      </g>
    </g>
  </g>
</svg>
