<?xml version="1.0" encoding="UTF-8" standalone="no"?>
<!-- Created with Inkscape (http://www.inkscape.org/) -->

<svg
   xmlns:dc="http://purl.org/dc/elements/1.1/"
   xmlns:cc="http://creativecommons.org/ns#"
   xmlns:rdf="http://www.w3.org/1999/02/22-rdf-syntax-ns#"
   xmlns:svg="http://www.w3.org/2000/svg"
   xmlns="http://www.w3.org/2000/svg"
   xmlns:sodipodi="http://sodipodi.sourceforge.net/DTD/sodipodi-0.dtd"
   xmlns:inkscape="http://www.inkscape.org/namespaces/inkscape"
   version="1.1"
   id="svg2"
   xml:space="preserve"
   width="116.34412"
   height="127.30973"
   viewBox="0 0 116.34412 127.30973"
   sodipodi:docname="chilliestate_sygnet.svg"
   inkscape:version="0.92.4 (5da689c313, 2019-01-14)"><metadata
     id="metadata8"><rdf:RDF><cc:Work
         rdf:about=""><dc:format>image/svg+xml</dc:format><dc:type
           rdf:resource="http://purl.org/dc/dcmitype/StillImage" /><dc:title></dc:title></cc:Work></rdf:RDF></metadata><defs
     id="defs6"><clipPath
       clipPathUnits="userSpaceOnUse"
       id="clipPath18"><path
         d="M 0,126.45 H 141.055 V 0 H 0 Z"
         id="path16"
         inkscape:connector-curvature="0" /></clipPath></defs><sodipodi:namedview
     pagecolor="#ffffff"
     bordercolor="#666666"
     borderopacity="1"
     objecttolerance="10"
     gridtolerance="10"
     guidetolerance="10"
     inkscape:pageopacity="0"
     inkscape:pageshadow="2"
     inkscape:window-width="640"
     inkscape:window-height="480"
     id="namedview4"
     showgrid="false"
     inkscape:zoom="1.3997627"
     inkscape:cx="55.763812"
     inkscape:cy="54.367575"
     inkscape:window-x="0"
     inkscape:window-y="84"
     inkscape:window-maximized="0"
     inkscape:current-layer="g14" /><g
     id="g10"
     inkscape:groupmode="layer"
     inkscape:label="chilli-estate_logo-normal-square"
     transform="matrix(1.3333333,0,0,-1.3333333,-38.272854,157.24215)"><g
       id="g12"><g
         id="g14"
         clip-path="url(#clipPath18)"><g
           id="g20"
           transform="translate(105.30557,85.528421)"><path
             d="M 0,0 C -1.012,1.011 -2.44,1.512 -3.854,1.298 -3.904,1.291 -3.95,1.283 -3.992,1.274 -7.18,0.666 -9.961,-3.878 -10.778,-5.28 c -0.115,-0.197 0.004,-0.443 0.226,-0.476 0.713,-0.104 2.129,-0.413 3.429,-1.305 1.315,-0.903 2.225,-2.788 2.582,-4.945 0.086,-0.519 0.523,-0.906 1.049,-0.906 h 12.55 c 1.421,0 2.134,1.719 1.129,2.725 z"
             style="fill:#2e3690;fill-opacity:1;fill-rule:nonzero;stroke:none"
             id="path22"
             inkscape:connector-curvature="0" /></g><g
           id="g24"
           transform="translate(62.962768,22.449317)"><path
             d="m 0,0 h 36.371 c 0.854,0 1.546,0.692 1.546,1.546 v 33.676 c 0,1.689 -2.32,2.153 -2.971,0.594 C 26.579,15.768 10.76,6.903 -0.514,3.004 -2.157,2.436 -1.739,0 0,0"
             style="fill:#2e3690;fill-opacity:1;fill-rule:nonzero;stroke:none"
             id="path26"
             inkscape:connector-curvature="0" /></g><g
           id="g28"
           transform="translate(43.335867,24.541615)"><path
             d="m 0,0 c 0,-1.548 1.743,-2.456 3.014,-1.573 27.995,19.451 33.526,42.937 34.158,51.477 0.103,1.408 1.76,6.401 6.441,6.27 0.626,-0.017 2.379,0.039 3,-0.053 0.497,-0.074 0.691,0.092 0.92,0.521 1.028,1.916 1.977,3.896 3.201,5.677 0.897,1.303 1.916,2.668 3.177,3.659 0.911,0.715 1.011,2.056 0.192,2.875 L 30.127,92.829 c -0.748,0.748 -1.961,0.748 -2.71,0 L -14.066,51.345 c -1.207,-1.207 -0.353,-3.27 1.354,-3.27 H -1.916 C -0.857,48.075 0,47.217 0,46.159 Z"
             style="fill:#1172ba;fill-opacity:1;fill-rule:nonzero;stroke:none"
             id="path30"
             inkscape:connector-curvature="0" /></g></g></g></g></svg>