<?xml version="1.0" encoding="UTF-8" standalone="no"?>
<!-- Created with Inkscape (http://www.inkscape.org/) -->

<svg
   xmlns:dc="http://purl.org/dc/elements/1.1/"
   xmlns:cc="http://creativecommons.org/ns#"
   xmlns:rdf="http://www.w3.org/1999/02/22-rdf-syntax-ns#"
   xmlns:svg="http://www.w3.org/2000/svg"
   xmlns="http://www.w3.org/2000/svg"
   xmlns:sodipodi="http://sodipodi.sourceforge.net/DTD/sodipodi-0.dtd"
   xmlns:inkscape="http://www.inkscape.org/namespaces/inkscape"
   width="114.1414mm"
   height="113.6003mm"
   viewBox="0 0 114.1414 113.6003"
   version="1.1"
   id="svg5770"
   inkscape:version="0.92.4 (5da689c313, 2019-01-14)"
   sodipodi:docname="drawing.svg">
  <defs
     id="defs5764">
    <clipPath
       clipPathUnits="userSpaceOnUse"
       id="clipPath270">
      <path
         d="m 1234.34,3107.97 h 49.79 v -27.15 h -49.79 z"
         id="path268"
         inkscape:connector-curvature="0" />
    </clipPath>
  </defs>
  <sodipodi:namedview
     id="base"
     pagecolor="#ffffff"
     bordercolor="#666666"
     borderopacity="1.0"
     inkscape:pageopacity="0.0"
     inkscape:pageshadow="2"
     inkscape:zoom="0.49497475"
     inkscape:cx="524.95722"
     inkscape:cy="61.773893"
     inkscape:document-units="mm"
     inkscape:current-layer="layer1"
     showgrid="false"
     inkscape:window-width="1024"
     inkscape:window-height="738"
     inkscape:window-x="0"
     inkscape:window-y="84"
     inkscape:window-maximized="1" />
  <metadata
     id="metadata5767">
    <rdf:RDF>
      <cc:Work
         rdf:about="">
        <dc:format>image/svg+xml</dc:format>
        <dc:type
           rdf:resource="http://purl.org/dc/dcmitype/StillImage" />
        <dc:title></dc:title>
      </cc:Work>
    </rdf:RDF>
  </metadata>
  <g
     inkscape:label="Layer 1"
     inkscape:groupmode="layer"
     id="layer1"
     transform="translate(-0.19826095,-0.22099163)">
    <g
       id="g6339"
       transform="translate(-3.2072343,-4.8776689)">
      <g
         transform="matrix(0.35277777,0,0,-0.35277777,20.533026,16.401098)"
         id="g20">
        <path
           inkscape:connector-curvature="0"
           id="path22"
           style="fill:#0d72b9;fill-opacity:1;fill-rule:nonzero;stroke:none"
           d="M 0,0 C 0,0 109,54 158.618,21.788 203.453,-7.319 141.203,-67.93 179,-54 c 39.263,14.47 74.147,-14.723 76.499,-49.718 3.242,-48.252 -82.932,-84.756 -65.641,-82.634 37.093,4.551 58.057,-5.997 37.093,-30.382 -27.641,-32.154 -115.025,-67.323 -133.044,-51.24 -18.018,16.083 18.71,60.942 -15.326,49.152 -79.24,-27.449 -141.571,22.428 -101.086,65.15 16.231,17.126 68.765,51.75 35.189,55.421 C -42.563,-92.21 -85.854,-49.884 0,0" />
      </g>
      <g
         transform="matrix(0.35277777,0,0,-0.35277777,97.442026,55.306735)"
         id="g24">
        <path
           inkscape:connector-curvature="0"
           id="path26"
           style="fill:#f5efdb;fill-opacity:1;fill-rule:nonzero;stroke:none"
           d="m 0,0 c 0,-5.199 -4.215,-9.414 -9.414,-9.414 -5.199,0 -9.414,4.215 -9.414,9.414 0,5.199 4.215,9.414 9.414,9.414 C -4.215,9.414 0,5.199 0,0" />
      </g>
      <g
         transform="matrix(0.35277777,0,0,-0.35277777,89.055606,58.226465)"
         id="g28">
        <path
           inkscape:connector-curvature="0"
           id="path30"
           style="fill:#f5efdb;fill-opacity:1;fill-rule:nonzero;stroke:none"
           d="m 0,0 c 0,-4.539 -3.68,-8.219 -8.219,-8.219 -4.539,0 -8.218,3.68 -8.218,8.219 0,4.539 3.679,8.219 8.218,8.219 C -3.68,8.219 0,4.539 0,0" />
      </g>
      <g
         transform="matrix(0.35277777,0,0,-0.35277777,117.54689,25.746957)"
         id="g32">
        <path
           inkscape:connector-curvature="0"
           id="path34"
           style="fill:#f5efdb;fill-opacity:1;fill-rule:nonzero;stroke:none"
           d="m 0,0 c 0,10.867 -8.81,19.677 -19.677,19.677 -0.273,0 -0.544,-0.01 -0.813,-0.02 0.525,1.599 0.813,3.307 0.813,5.082 0,8.992 -7.289,16.281 -16.281,16.281 -4.476,0 -8.529,-1.808 -11.473,-4.731 -0.655,4.263 -4.329,7.531 -8.775,7.531 -4.139,0 -7.607,-2.832 -8.597,-6.662 -2.963,4.039 -7.74,6.662 -13.133,6.662 -7.042,0 -13.038,-4.471 -15.308,-10.729 -1.827,0.561 -3.767,0.864 -5.777,0.864 -10.868,0 -19.677,-8.81 -19.677,-19.677 0,-3.606 0.974,-6.983 2.668,-9.889 -4.283,-0.639 -7.571,-4.321 -7.571,-8.781 0,-3.545 2.08,-6.595 5.081,-8.023 -3.157,-3.49 -5.081,-8.118 -5.081,-13.194 0,-10.868 8.811,-19.678 19.678,-19.678 0.693,0 1.376,0.037 2.05,0.107 -0.152,-0.894 -0.235,-1.81 -0.235,-2.747 0,-8.992 7.289,-16.281 16.28,-16.281 4.682,0 8.899,1.979 11.869,5.143 -0.011,-0.174 -0.026,-0.347 -0.026,-0.524 0,-4.91 3.979,-8.89 8.889,-8.89 4.91,0 8.89,3.98 8.89,8.89 0,0.121 -0.013,0.238 -0.018,0.358 0.025,0.003 0.048,0.006 0.073,0.009 0.28,-4.657 4.134,-8.351 8.862,-8.351 4.91,0 8.891,3.981 8.891,8.89 0,1.38 -0.325,2.682 -0.885,3.847 2.738,-2.091 6.157,-3.334 9.868,-3.334 8.991,0 16.28,7.289 16.28,16.28 0,2.983 -0.806,5.777 -2.207,8.182 0.204,-0.015 0.407,-0.032 0.614,-0.032 4.911,0 8.89,3.981 8.89,8.89 0,3.241 -1.739,6.069 -4.331,7.622 C -4.106,-13.875 0,-7.418 0,0" />
      </g>
      <g
         transform="matrix(0.35277777,0,0,-0.35277777,95.655746,38.440077)"
         id="g36">
        <path
           inkscape:connector-curvature="0"
           id="path38"
           style="fill:#f3be61;fill-opacity:1;fill-rule:nonzero;stroke:none"
           d="m 0,0 -6.197,55.065 c 0,0 -21.221,-3.229 -19.626,-22.461 1.679,-20.268 15.116,-11.645 16.367,-33.668 z" />
      </g>
      <g
         transform="matrix(0.35277777,0,0,-0.35277777,95.655746,38.440077)"
         id="g40">
        <path
           inkscape:connector-curvature="0"
           id="path42"
           style="fill:#f3be61;fill-opacity:1;fill-rule:nonzero;stroke:none"
           d="m 0,0 -6.197,55.065 c 0,0 19.8,3.77 24.128,-17.536 C 21.979,17.598 5.78,22.815 9.457,1.064 Z" />
      </g>
      <g
         transform="matrix(0.35277777,0,0,-0.35277777,92.258516,38.057137)"
         id="g44">
        <path
           inkscape:connector-curvature="0"
           id="path46"
           style="fill:#383a45;fill-opacity:1;fill-rule:nonzero;stroke:none"
           d="M 0,0 18.693,2.877 20.406,-12.342 1.627,-14.456 Z" />
      </g>
      <g
         transform="matrix(0.35277777,0,0,-0.35277777,94.120946,41.788855)"
         id="g48">
        <path
           inkscape:connector-curvature="0"
           id="path50"
           style="fill:#383a45;fill-opacity:1;fill-rule:nonzero;stroke:none"
           d="M 0,0 10.659,1.586 11.516,-6.023 0.813,-7.228 Z" />
      </g>
      <g
         transform="matrix(0.35277777,0,0,-0.35277777,95.212006,28.852353)"
         id="g52">
        <path
           inkscape:connector-curvature="0"
           id="path54"
           style="fill:#fffaf0;fill-opacity:1;fill-rule:nonzero;stroke:none"
           d="m 0,0 c -0.037,0 -0.078,-0.002 -0.121,-0.008 -0.138,-0.194 -0.02,-1.057 0.32,-1.95 0.197,0.59 0.274,1.174 0.174,1.591 C 0.305,-0.079 0.192,0 0,0 m -4.159,-0.576 c -0.268,-0.274 -0.145,-0.972 0.107,-1.558 0.072,-0.166 0.156,-0.331 0.248,-0.491 0.004,0.125 0.005,0.252 0.002,0.381 -0.023,0.868 -0.215,1.445 -0.357,1.668 m -1.572,-25.084 -2.843,25.258 1.263,0.216 c 0.539,-2.327 1.597,-4.979 2.314,-5.218 0.032,-0.01 0.081,-0.027 0.207,0.08 0.268,0.224 0.49,0.568 0.656,0.99 -0.449,0.482 -0.83,1.07 -1.097,1.692 -0.657,1.526 -0.422,2.787 0.61,3.292 0.435,0.214 1.067,0.191 1.528,-0.516 0.558,-0.855 0.759,-2.544 0.425,-4.057 0.398,-0.286 0.808,-0.416 1.147,-0.289 0.354,0.131 0.692,0.433 0.983,0.821 -0.673,1.211 -1.067,2.786 -0.805,3.693 0.16,0.554 0.553,0.906 1.077,0.966 0.952,0.107 1.661,-0.392 1.887,-1.336 0.221,-0.924 -0.047,-2.217 -0.634,-3.315 0.019,-0.022 0.036,-0.044 0.055,-0.065 0.261,-0.305 0.48,-0.43 0.559,-0.385 0.863,0.473 1.26,3.088 1.267,4.793 L 4.147,1.029 7.006,-24.362 5.729,-24.505 3.371,-3.551 C 3.096,-4.167 2.723,-4.682 2.218,-4.959 1.906,-5.13 1.269,-5.324 0.5,-4.708 c -0.089,0.071 -0.177,0.151 -0.262,0.239 -0.384,-0.429 -0.827,-0.765 -1.31,-0.946 -0.672,-0.25 -1.377,-0.125 -2.027,0.245 -0.22,-0.443 -0.505,-0.834 -0.864,-1.136 -0.436,-0.368 -0.948,-0.48 -1.439,-0.316 -0.491,0.164 -0.93,0.616 -1.316,1.212 l 2.263,-20.106 z" />
      </g>
      <g
         transform="matrix(0.35277777,0,0,-0.35277777,94.169526,19.973325)"
         id="g56">
        <path
           inkscape:connector-curvature="0"
           id="path58"
           style="fill:#f5efdb;fill-opacity:1;fill-rule:nonzero;stroke:none"
           d="m 0,0 c 0,0 13.36,-2.979 17.142,-12.922 3.781,-9.943 1.081,-15.828 1.696,-15.07 0.615,0.759 3.414,4.209 0.975,13.736 C 17.376,-4.729 9.01,3.396 0,0" />
      </g>
      <g
         transform="matrix(0.35277777,0,0,-0.35277777,92.330516,38.68053)"
         id="g60">
        <path
           inkscape:connector-curvature="0"
           id="path62"
           style="fill:#fffaf0;fill-opacity:1;fill-rule:nonzero;stroke:none"
           d="M 0,0 -0.081,0.637 18.666,3.025 18.748,2.389 Z" />
      </g>
      <g
         transform="matrix(0.35277777,0,0,-0.35277777,92.460426,39.85274)"
         id="g64">
        <path
           inkscape:connector-curvature="0"
           id="path66"
           style="fill:#fffaf0;fill-opacity:1;fill-rule:nonzero;stroke:none"
           d="M 0,0 -0.071,0.638 18.708,2.751 18.779,2.114 Z" />
      </g>
      <g
         transform="matrix(0.35277777,0,0,-0.35277777,92.630606,41.285724)"
         id="g68">
        <path
           inkscape:connector-curvature="0"
           id="path70"
           style="fill:#fffaf0;fill-opacity:1;fill-rule:nonzero;stroke:none"
           d="M 0,0 -0.12,0.63 18.497,4.181 18.617,3.55 Z" />
      </g>
      <g
         transform="matrix(0.35277777,0,0,-0.35277777,92.693996,41.927002)"
         id="g72">
        <path
           inkscape:connector-curvature="0"
           id="path74"
           style="fill:#fffaf0;fill-opacity:1;fill-rule:nonzero;stroke:none"
           d="M 0,0 -0.071,0.638 18.708,2.751 18.779,2.113 Z" />
      </g>
      <g
         transform="matrix(0.35277777,0,0,-0.35277777,93.091216,17.498519)"
         id="g76">
        <path
           inkscape:connector-curvature="0"
           id="path78"
           style="fill:#0d72b9;fill-opacity:1;fill-rule:nonzero;stroke:none"
           d="m 0,0 c -0.644,0 -1.199,0.484 -1.273,1.14 l -0.531,4.71 c -0.079,0.705 0.428,1.34 1.132,1.419 0.7,0.082 1.34,-0.427 1.419,-1.132 l 0.53,-4.71 C 1.357,0.722 0.851,0.087 0.146,0.008 0.097,0.002 0.049,0 0,0" />
      </g>
      <g
         transform="matrix(0.35277777,0,0,-0.35277777,97.204636,17.628942)"
         id="g80">
        <path
           inkscape:connector-curvature="0"
           id="path82"
           style="fill:#0d72b9;fill-opacity:1;fill-rule:nonzero;stroke:none"
           d="M 0,0 C -0.104,0 -0.211,0.013 -0.316,0.04 -1.004,0.214 -1.419,0.913 -1.245,1.6 l 1.167,4.594 C 0.097,6.88 0.791,7.298 1.482,7.122 2.169,6.947 2.584,6.249 2.41,5.562 L 1.243,0.968 C 1.096,0.387 0.573,0 0,0" />
      </g>
      <g
         transform="matrix(0.35277777,0,0,-0.35277777,100.6184,19.221239)"
         id="g84">
        <path
           inkscape:connector-curvature="0"
           id="path86"
           style="fill:#0d72b9;fill-opacity:1;fill-rule:nonzero;stroke:none"
           d="M 0,0 C -0.23,0 -0.465,0.063 -0.677,0.194 -1.278,0.569 -1.463,1.36 -1.088,1.962 L 1.417,5.987 C 1.791,6.588 2.581,6.774 3.185,6.398 3.787,6.023 3.971,5.232 3.597,4.63 L 1.092,0.605 C 0.849,0.215 0.429,0 0,0" />
      </g>
      <g
         transform="matrix(0.35277777,0,0,-0.35277777,102.97624,21.596139)"
         id="g88">
        <path
           inkscape:connector-curvature="0"
           id="path90"
           style="fill:#0d72b9;fill-opacity:1;fill-rule:nonzero;stroke:none"
           d="m 0,0 c -0.463,0 -0.91,0.251 -1.14,0.69 -0.327,0.629 -0.083,1.404 0.546,1.732 l 4.203,2.19 C 4.238,4.941 5.014,4.695 5.341,4.067 5.668,3.439 5.424,2.664 4.795,2.336 L 0.592,0.146 C 0.402,0.047 0.199,0 0,0" />
      </g>
      <g
         transform="matrix(0.35277777,0,0,-0.35277777,103.99872,24.181153)"
         id="g92">
        <path
           inkscape:connector-curvature="0"
           id="path94"
           style="fill:#0d72b9;fill-opacity:1;fill-rule:nonzero;stroke:none"
           d="M 0,0 C -0.595,0 -1.128,0.416 -1.255,1.021 -1.4,1.714 -0.956,2.395 -0.263,2.54 l 4.64,0.973 C 5.069,3.656 5.751,3.213 5.896,2.52 6.041,1.826 5.597,1.146 4.903,1 L 0.265,0.028 C 0.176,0.009 0.087,0 0,0" />
      </g>
      <g
         transform="matrix(0.35277777,0,0,-0.35277777,105.76399,31.061518)"
         id="g96">
        <path
           inkscape:connector-curvature="0"
           id="path98"
           style="fill:#0d72b9;fill-opacity:1;fill-rule:nonzero;stroke:none"
           d="m 0,0 c -0.186,0 -0.375,0.041 -0.553,0.126 l -4.276,2.046 c -0.639,0.306 -0.909,1.072 -0.604,1.712 0.307,0.639 1.075,0.909 1.712,0.603 L 0.555,2.441 C 1.194,2.135 1.465,1.369 1.158,0.729 0.938,0.269 0.479,0 0,0" />
      </g>
      <g
         transform="matrix(0.35277777,0,0,-0.35277777,103.95498,34.304922)"
         id="g100">
        <path
           inkscape:connector-curvature="0"
           id="path102"
           style="fill:#0d72b9;fill-opacity:1;fill-rule:nonzero;stroke:none"
           d="m 0,0 c -0.281,0 -0.563,0.091 -0.8,0.28 l -3.706,2.955 c -0.554,0.442 -0.644,1.25 -0.203,1.804 0.442,0.555 1.25,0.645 1.804,0.203 L 0.801,2.287 C 1.354,1.845 1.445,1.038 1.004,0.483 0.75,0.166 0.376,0 0,0" />
      </g>
      <g
         transform="matrix(0.35277777,0,0,-0.35277777,106.28591,27.476062)"
         id="g104">
        <path
           inkscape:connector-curvature="0"
           id="path106"
           style="fill:#0d72b9;fill-opacity:1;fill-rule:nonzero;stroke:none"
           d="M 0,0 C -0.051,0 -0.102,0.003 -0.153,0.009 L -4.86,0.571 c -0.704,0.084 -1.207,0.722 -1.123,1.427 0.085,0.703 0.718,1.207 1.427,1.122 L 0.15,2.558 C 0.854,2.474 1.357,1.835 1.273,1.131 1.195,0.479 0.641,0 0,0" />
      </g>
      <g
         transform="matrix(0.35277777,0,0,-0.35277777,89.720186,18.47127)"
         id="g108">
        <path
           inkscape:connector-curvature="0"
           id="path110"
           style="fill:#0d72b9;fill-opacity:1;fill-rule:nonzero;stroke:none"
           d="m 0,0 c -0.467,0 -0.917,0.255 -1.144,0.699 l -2.158,4.22 c -0.323,0.631 -0.073,1.405 0.558,1.727 0.633,0.324 1.405,0.073 1.727,-0.558 L 1.142,1.868 C 1.465,1.237 1.215,0.463 0.584,0.141 0.396,0.045 0.196,0 0,0" />
      </g>
      <g
         transform="matrix(0.35277777,0,0,-0.35277777,86.744626,20.782564)"
         id="g112">
        <path
           inkscape:connector-curvature="0"
           id="path114"
           style="fill:#0d72b9;fill-opacity:1;fill-rule:nonzero;stroke:none"
           d="m 0,0 c -0.33,0 -0.66,0.127 -0.911,0.38 l -3.337,3.367 c -0.499,0.503 -0.495,1.316 0.008,1.815 0.505,0.499 1.316,0.495 1.815,-0.008 L 0.912,2.187 C 1.411,1.684 1.407,0.871 0.904,0.372 0.653,0.124 0.327,0 0,0" />
      </g>
      <g
         transform="matrix(0.35277777,0,0,-0.35277777,84.975256,23.622178)"
         id="g116">
        <path
           inkscape:connector-curvature="0"
           id="path118"
           style="fill:#0d72b9;fill-opacity:1;fill-rule:nonzero;stroke:none"
           d="m 0,0 c -0.107,0 -0.217,0.014 -0.326,0.042 l -4.586,1.202 c -0.686,0.179 -1.096,0.881 -0.916,1.566 0.18,0.685 0.879,1.095 1.566,0.917 L 0.324,2.525 C 1.01,2.346 1.421,1.645 1.24,0.958 1.09,0.382 0.569,0 0,0" />
      </g>
      <g
         transform="matrix(0.35277777,0,0,-0.35277777,82.879596,26.399102)"
         id="g120">
        <path
           inkscape:connector-curvature="0"
           id="path122"
           style="fill:#0d72b9;fill-opacity:1;fill-rule:nonzero;stroke:none"
           d="M 0,0 C -0.698,0 -1.271,0.56 -1.283,1.261 -1.295,1.97 -0.73,2.555 -0.021,2.567 L 4.718,2.65 c 0.007,0 0.015,0 0.022,0 0.698,0 1.271,-0.56 1.283,-1.26 C 6.036,0.681 5.472,0.096 4.763,0.083 L 0.023,0 C 0.016,0 0.008,0 0,0" />
      </g>
      <g
         transform="matrix(0.35277777,0,0,-0.35277777,84.360286,33.470495)"
         id="g124">
        <path
           inkscape:connector-curvature="0"
           id="path126"
           style="fill:#0d72b9;fill-opacity:1;fill-rule:nonzero;stroke:none"
           d="m 0,0 c -0.378,0 -0.753,0.167 -1.007,0.486 -0.439,0.556 -0.347,1.363 0.208,1.803 L 2.916,5.234 C 3.472,5.674 4.277,5.583 4.72,5.026 5.159,4.471 5.066,3.664 4.511,3.223 L 0.797,0.278 C 0.561,0.091 0.279,0 0,0" />
      </g>
      <g
         transform="matrix(0.35277777,0,0,-0.35277777,86.844906,36.23056)"
         id="g128">
        <path
           inkscape:connector-curvature="0"
           id="path130"
           style="fill:#0d72b9;fill-opacity:1;fill-rule:nonzero;stroke:none"
           d="M 0,0 C -0.281,0 -0.563,0.091 -0.8,0.28 -1.354,0.722 -1.445,1.53 -1.003,2.084 L 1.953,5.79 C 2.395,6.343 3.203,6.434 3.757,5.992 4.311,5.55 4.401,4.742 3.96,4.188 L 1.004,0.483 C 0.75,0.166 0.376,0 0,0" />
      </g>
      <g
         transform="matrix(0.35277777,0,0,-0.35277777,83.055276,30.090709)"
         id="g132">
        <path
           inkscape:connector-curvature="0"
           id="path134"
           style="fill:#0d72b9;fill-opacity:1;fill-rule:nonzero;stroke:none"
           d="M 0,0 C -0.527,0 -1.021,0.327 -1.209,0.853 -1.447,1.52 -1.1,2.254 -0.432,2.493 L 4.032,4.087 C 4.699,4.324 5.435,3.978 5.673,3.309 5.911,2.642 5.563,1.907 4.896,1.669 L 0.432,0.075 C 0.289,0.024 0.144,0 0,0" />
      </g>
      <g
         transform="matrix(0.35277777,0,0,-0.35277777,46.047376,28.679421)"
         id="g136">
        <path
           inkscape:connector-curvature="0"
           id="path138"
           style="fill:#f5efdb;fill-opacity:1;fill-rule:nonzero;stroke:none"
           d="m 0,0 c -0.914,0.927 -1.195,2.308 -0.768,3.537 l 0.89,2.562 c 0.203,0.732 0.83,2.546 2.416,4.378 1.691,1.953 4.845,4.334 10.269,4.585 4.622,0.214 5.609,3.814 5.771,4.615 0.042,0.292 0.098,0.435 0.223,0.792 1.007,2.879 0.174,6.11 -2.152,8.084 C 12.085,32.429 5.702,30.227 4.089,25.136 3.711,23.941 2.673,23.053 1.436,22.862 -1.779,22.366 -3.832,25.242 -2.94,27.809 -0.184,35.74 8.512,39.952 16.444,37.195 24.281,34.472 28.486,25.95 25.927,18.096 25.183,14.436 21.685,7.952 13.155,7.557 8.23,7.328 7.391,4.207 7.384,4.176 7.353,4.038 7.313,3.902 7.268,3.769 L 6.399,1.272 C 5.521,-1.256 2.215,-2.248 0,0" />
      </g>
      <g
         transform="matrix(0.35277777,0,0,-0.35277777,47.456436,31.266517)"
         id="g140">
        <path
           inkscape:connector-curvature="0"
           id="path142"
           style="fill:#f5efdb;fill-opacity:1;fill-rule:nonzero;stroke:none"
           d="M 0,0 C -0.749,-2.156 -3.104,-3.297 -5.261,-2.548 -7.417,-1.798 -8.558,0.557 -7.809,2.713 -7.06,4.87 -4.704,6.01 -2.548,5.261 -0.392,4.512 0.749,2.156 0,0" />
      </g>
      <g
         transform="matrix(0.35277777,0,0,-0.35277777,35.057536,34.602737)"
         id="g144">
        <path
           inkscape:connector-curvature="0"
           id="path146"
           style="fill:#f5efdb;fill-opacity:1;fill-rule:nonzero;stroke:none"
           d="M 0,0 C -1.717,-0.317 -3.462,0.41 -4.506,1.81 L -6.68,4.726 c -0.66,0.776 -2.203,2.837 -3.045,5.977 -0.895,3.347 -1.166,8.641 2.637,14.854 3.24,5.293 -0.015,9.099 -0.781,9.881 -0.293,0.267 -0.41,0.437 -0.712,0.843 -2.44,3.284 -6.653,4.791 -10.595,3.695 -7.74,-2.152 -10.098,-10.897 -5.659,-16.519 1.042,-1.319 1.248,-3.14 0.528,-4.658 -1.868,-3.943 -6.606,-4.058 -8.785,-1.136 -6.734,9.029 -4.866,21.855 4.164,28.588 8.922,6.654 21.549,4.91 28.345,-3.843 C 2.921,38.827 7.488,30.064 1.509,20.294 -1.943,14.655 0.89,11.373 0.919,11.341 1.049,11.204 1.171,11.058 1.283,10.907 L 3.403,8.063 C 5.55,5.186 4.163,0.768 0,0" />
      </g>
      <g
         transform="matrix(0.35277777,0,0,-0.35277777,38.990456,34.98497)"
         id="g148">
        <path
           inkscape:connector-curvature="0"
           id="path150"
           style="fill:#f5efdb;fill-opacity:1;fill-rule:nonzero;stroke:none"
           d="m 0,0 c 1.831,-2.455 1.325,-5.928 -1.13,-7.759 -2.454,-1.83 -5.929,-1.324 -7.759,1.13 -1.831,2.455 -1.325,5.929 1.13,7.759 C -5.304,2.961 -1.83,2.455 0,0" />
      </g>
      <g
         transform="matrix(0.35277777,0,0,-0.35277777,43.206226,43.872113)"
         id="g152">
        <path
           inkscape:connector-curvature="0"
           id="path154"
           style="fill:#383a45;fill-opacity:1;fill-rule:nonzero;stroke:none"
           d="m 0,0 c 0,-7.477 6.061,-13.537 13.536,-13.537 7.477,0 13.537,6.06 13.537,13.537 0,7.476 -6.06,13.537 -13.537,13.537 C 6.061,13.537 0,7.476 0,0" />
      </g>
      <g
         transform="matrix(0.35277777,0,0,-0.35277777,64.854166,43.872113)"
         id="g156">
        <path
           inkscape:connector-curvature="0"
           id="path158"
           style="fill:#383a45;fill-opacity:1;fill-rule:nonzero;stroke:none"
           d="m 0,0 c 0,-7.477 6.061,-13.537 13.537,-13.537 7.476,0 13.537,6.06 13.537,13.537 0,7.476 -6.061,13.537 -13.537,13.537 C 6.061,13.537 0,7.476 0,0" />
      </g>
      <g
         transform="matrix(0.35277777,0,0,-0.35277777,83.200326,118.69889)"
         id="g160">
        <path
           inkscape:connector-curvature="0"
           id="path162"
           style="fill:#fffaef;fill-opacity:1;fill-rule:nonzero;stroke:none"
           d="m 0,0 c 0,0 9.956,56.914 10.187,68.973 0.231,12.058 -147.282,-8.516 -147.282,-8.516 L -125.978,0 Z" />
      </g>
      <g
         transform="matrix(0.35277777,0,0,-0.35277777,37.279606,101.89443)"
         id="g164">
        <path
           inkscape:connector-curvature="0"
           id="path166"
           style="fill:#f6bc9f;fill-opacity:1;fill-rule:nonzero;stroke:none"
           d="m 0,0 c 0,0 -13.536,61.665 24.064,72.945 37.601,11.281 32.541,33.06 13.537,57.769 -33.921,44.104 31.188,89.439 45.873,61.802 29.907,-56.289 1.208,-59.939 -5.31,-78.991 C 70.314,90.579 75.541,85.002 100.081,77.004 135.906,65.328 128.165,0 128.165,0 Z" />
      </g>
      <g
         transform="matrix(0.35277777,0,0,-0.35277777,53.593186,72.005611)"
         id="g168">
        <path
           inkscape:connector-curvature="0"
           id="path170"
           style="fill:#fffaef;fill-opacity:1;fill-rule:nonzero;stroke:none"
           d="m 0,0 c 0,0 -0.334,-24.01 18.773,-21.335 15.928,2.228 16.343,22.182 16.343,22.182 0,0 19.724,-6.302 27.103,-10.271 7.379,-3.969 44.146,-22.782 27.706,-75.3 H -46.243 c 0,0 -11.591,27.944 0,53.027 C -33.188,-3.443 -7.362,-6.095 0,0" />
      </g>
      <g
         transform="matrix(0.35277777,0,0,-0.35277777,49.224806,83.226309)"
         id="g172">
        <path
           inkscape:connector-curvature="0"
           id="path174"
           style="fill:#d6ece1;fill-opacity:1;fill-rule:nonzero;stroke:none"
           d="m 0,0 c 0,0 20.606,-71.82 81.34,-24.104 v -76.448 H 1.597 Z" />
      </g>
      <g
         transform="matrix(0.35277777,0,0,-0.35277777,48.759006,49.464206)"
         id="g176">
        <path
           inkscape:connector-curvature="0"
           id="path178"
           style="fill:#f6bc9f;fill-opacity:1;fill-rule:nonzero;stroke:none"
           d="m 0,0 c 1.253,-5.584 1.245,-13.287 -3.186,-13.287 -4.429,0 -12.858,8.856 -12.858,13.287 0,4.43 3.591,8.021 8.022,8.021 C -3.592,8.021 -0.971,4.323 0,0" />
      </g>
      <g
         transform="matrix(0.35277777,0,0,-0.35277777,69.882626,49.464206)"
         id="g180">
        <path
           inkscape:connector-curvature="0"
           id="path182"
           style="fill:#f6bc9f;fill-opacity:1;fill-rule:nonzero;stroke:none"
           d="m 0,0 c -1.253,-5.584 -1.245,-13.287 3.185,-13.287 4.43,0 12.859,8.856 12.859,13.287 0,4.43 -3.592,8.021 -8.023,8.021 C 3.592,8.021 0.971,4.323 0,0" />
      </g>
      <g
         transform="matrix(0.35277777,0,0,-0.35277777,55.645076,67.744903)"
         id="g184">
        <path
           inkscape:connector-curvature="0"
           id="path186"
           style="fill:#e9946f;fill-opacity:1;fill-rule:nonzero;stroke:none"
           d="m 0,0 c 0,0 15.246,-4.722 23.234,6.643 0,0 2.37,11.083 3.037,12.42 0.669,1.337 -0.667,-1.337 -0.667,-1.337 h -31.42 c 0,0 6.62,-7.71 5.816,-17.726" />
      </g>
      <g
         transform="matrix(0.35277777,0,0,-0.35277777,49.820116,40.267006)"
         id="g188">
        <path
           inkscape:connector-curvature="0"
           id="path190"
           style="fill:#383a45;fill-opacity:1;fill-rule:nonzero;stroke:none"
           d="m 0,0 c 0,0 -7.604,-36.851 4.763,-47.88 12.367,-11.031 11.303,13.037 24.065,13.527 8.691,0.335 12.49,-22.233 25.476,-8.069 8.495,9.268 -0.196,45.739 -0.196,45.739 l 7.303,-4.821 c 0,0 8.71,-64.204 -32.072,-67.154 -41.593,-3.008 -40.614,61.033 -37.036,68.408 0,0 4.689,3.592 7.697,0.25" />
      </g>
      <g
         transform="matrix(0.35277777,0,0,-0.35277777,55.480056,47.07777)"
         id="g192">
        <path
           inkscape:connector-curvature="0"
           id="path194"
           style="fill:#383a45;fill-opacity:1;fill-rule:nonzero;stroke:none"
           d="m 0,0 c 0,-1.569 -1.272,-2.841 -2.842,-2.841 -1.568,0 -2.841,1.272 -2.841,2.841 0,1.569 1.273,2.841 2.841,2.841 C -1.272,2.841 0,1.569 0,0" />
      </g>
      <g
         transform="matrix(0.35277777,0,0,-0.35277777,66.983586,46.6344)"
         id="g196">
        <path
           inkscape:connector-curvature="0"
           id="path198"
           style="fill:#383a45;fill-opacity:1;fill-rule:nonzero;stroke:none"
           d="m 0,0 c 0,-1.569 -1.271,-2.841 -2.841,-2.841 -1.569,0 -2.841,1.272 -2.841,2.841 0,1.569 1.272,2.841 2.841,2.841 C -1.271,2.841 0,1.569 0,0" />
      </g>
      <g
         transform="matrix(0.35277777,0,0,-0.35277777,60.142656,52.34894)"
         id="g200">
        <path
           inkscape:connector-curvature="0"
           id="path202"
           style="fill:#383a45;fill-opacity:1;fill-rule:nonzero;stroke:none"
           d="m 0,0 c -0.078,0 -0.156,0.008 -0.234,0.025 -2.377,0.51 -3.66,5.778 -3.892,6.829 l 1.503,0.333 C -2.11,4.878 -1.07,2.316 -0.202,1.673 0.293,3.389 -0.283,10.73 -1.166,17.065 l 1.525,0.213 C 1.158,11.543 2.272,1.713 0.756,0.303 0.543,0.105 0.276,0.001 0,0" />
      </g>
      <g
         transform="matrix(0.35277777,0,0,-0.35277777,53.946986,51.807708)"
         id="g204">
        <path
           inkscape:connector-curvature="0"
           id="path206"
           style="fill:#e9946f;fill-opacity:1;fill-rule:nonzero;stroke:none"
           d="m 0,0 c 0,-2.215 -1.796,-4.011 -4.011,-4.011 -2.215,0 -4.01,1.796 -4.01,4.011 0,2.215 1.795,4.011 4.01,4.011 C -1.796,4.011 0,2.215 0,0" />
      </g>
      <g
         transform="matrix(0.35277777,0,0,-0.35277777,68.208666,51.807708)"
         id="g208">
        <path
           inkscape:connector-curvature="0"
           id="path210"
           style="fill:#e9946f;fill-opacity:1;fill-rule:nonzero;stroke:none"
           d="m 0,0 c 0,-2.215 -1.796,-4.011 -4.011,-4.011 -2.216,0 -4.01,1.796 -4.01,4.011 0,2.215 1.794,4.011 4.01,4.011 C -1.796,4.011 0,2.215 0,0" />
      </g>
      <g
         transform="matrix(0.35277777,0,0,-0.35277777,46.321956,52.47005)"
         id="g212">
        <path
           inkscape:connector-curvature="0"
           id="path214"
           style="fill:#383a45;fill-opacity:1;fill-rule:nonzero;stroke:none"
           d="M 0,0 C -0.43,6.699 -1.863,8.042 -2.46,8.309 -3.035,8.564 -3.574,8.15 -3.597,8.132 l -0.972,1.193 c 0.464,0.383 1.555,0.9 2.708,0.402 C 0.062,8.895 1.174,5.746 1.536,0.099 Z" />
      </g>
      <g
         transform="matrix(0.35277777,0,0,-0.35277777,72.002046,52.47005)"
         id="g216">
        <path
           inkscape:connector-curvature="0"
           id="path218"
           style="fill:#383a45;fill-opacity:1;fill-rule:nonzero;stroke:none"
           d="M 0,0 -1.536,0.099 C -1.174,5.746 -0.062,8.895 1.861,9.727 3.01,10.225 4.104,9.708 4.569,9.325 L 3.596,8.132 C 3.573,8.15 3.033,8.565 2.46,8.309 1.863,8.042 0.431,6.699 0,0" />
      </g>
      <g
         transform="matrix(0.35277777,0,0,-0.35277777,49.820116,40.267006)"
         id="g220">
        <path
           inkscape:connector-curvature="0"
           id="path222"
           style="fill:#e9946f;fill-opacity:1;fill-rule:nonzero;stroke:none"
           d="m 0,0 c 0,0 9.742,10.26 19.32,8.594 9.579,-1.666 12.688,-17.922 36.329,-12.813 0,0 -13.819,5.276 -21.617,11.477 C 26.234,13.46 17.952,29.511 0,0" />
      </g>
      <g
         transform="matrix(0.35277777,0,0,-0.35277777,49.820116,40.267006)"
         id="g224">
        <path
           inkscape:connector-curvature="0"
           id="path226"
           style="fill:#383a45;fill-opacity:1;fill-rule:nonzero;stroke:none"
           d="M 0,0 C 0,0 11.28,19.052 21.308,16.044 31.335,13.036 46.961,-10.04 60.08,-2.889 c 0,0 -0.913,36.309 -34.756,34.805 C -8.518,30.412 -9.574,-11.783 0,0" />
      </g>
      <g
         transform="matrix(0.35277777,0,0,-0.35277777,59.572506,82.182438)"
         id="g228">
        <path
           inkscape:connector-curvature="0"
           id="path230"
           style="fill:#d6ece1;fill-opacity:1;fill-rule:nonzero;stroke:none"
           d="m 0,0 c -21.494,0 -23.857,22.487 -23.88,22.716 l 0.767,0.073 C -23.092,22.564 -20.738,0.332 0.579,0.775 21.911,1.18 24.077,25.798 24.097,26.047 l 0.766,-0.06 C 24.844,25.731 22.629,0.423 0.594,0.005 0.395,0.001 0.195,0 0,0" />
      </g>
      <g
         transform="matrix(0.35277777,0,0,-0.35277777,44.446436,45.767625)"
         id="g232">
        <path
           inkscape:connector-curvature="0"
           id="path234"
           style="fill:#547984;fill-opacity:1;fill-rule:nonzero;stroke:none"
           d="m 0,0 -0.026,0.769 c 0.05,0.002 5.089,0.221 8.248,4.053 2.319,2.815 3.08,6.851 2.263,11.998 l 0.76,0.121 C 12.1,11.563 11.279,7.318 8.81,4.326 5.425,0.225 0.22,0.007 0,0" />
      </g>
      <g
         transform="matrix(0.35277777,0,0,-0.35277777,43.207226,44.007863)"
         id="g236">
        <path
           inkscape:connector-curvature="0"
           id="path238"
           style="fill:#547984;fill-opacity:1;fill-rule:nonzero;stroke:none"
           d="m 0,0 -0.007,0.77 c 0.033,0 3.343,0.048 6.602,1.701 4.327,2.195 6.532,6.048 6.554,11.452 l 0.77,-0.003 C 13.862,0.265 0.139,0.001 0,0" />
      </g>
      <g
         transform="matrix(0.35277777,0,0,-0.35277777,72.458876,44.983328)"
         id="g240">
        <path
           inkscape:connector-curvature="0"
           id="path242"
           style="fill:#547984;fill-opacity:1;fill-rule:nonzero;stroke:none"
           d="m 0,0 c -0.356,0 -0.702,0.06 -1.037,0.181 -4.358,1.573 -4.93,13.056 -4.952,13.544 l 0.768,0.035 C -5.216,13.646 -4.652,2.304 -0.775,0.905 0.581,0.416 2.258,1.259 4.213,3.409 L 4.783,2.891 C 3.032,0.968 1.43,0 0,0" />
      </g>
      <g
         transform="matrix(0.35277777,0,0,-0.35277777,56.960056,44.644522)"
         id="g244">
        <path
           inkscape:connector-curvature="0"
           id="path246"
           style="fill:#383a45;fill-opacity:1;fill-rule:nonzero;stroke:none"
           d="M 0,0 C 0,0 -2.544,-1.814 -5.844,-2.271 -9.144,-2.726 -18.743,-2.385 -19.686,-2.515 -20.629,-2.645 -11.936,6.399 0,0" />
      </g>
      <g
         transform="matrix(0.35277777,0,0,-0.35277777,62.466016,43.483847)"
         id="g248">
        <path
           inkscape:connector-curvature="0"
           id="path250"
           style="fill:#383a45;fill-opacity:1;fill-rule:nonzero;stroke:none"
           d="M 0,0 C 0,0 9.064,7.029 12.812,4.921 16.852,2.65 16.505,0 16.505,0 c 0,0 -5.737,1.482 -6.463,1.162 C 6.776,-0.278 2.78,-2.202 0,0" />
      </g>
      <g
         transform="matrix(0.35277777,0,0,-0.35277777,63.287676,59.370735)"
         id="g252">
        <path
           inkscape:connector-curvature="0"
           id="path254"
           style="fill:#f6bc9f;fill-opacity:1;fill-rule:nonzero;stroke:none"
           d="M 0,0 C 0,0 -4.798,16.797 -10.23,15.687 -15.662,14.576 -19.988,2.638 -18.311,-2.637 -16.634,-7.913 0.254,-8.051 0,0" />
      </g>
      <g
         transform="matrix(0.35277777,0,0,-0.35277777,58.111416,57.603742)"
         id="g256">
        <path
           inkscape:connector-curvature="0"
           id="path258"
           style="fill:#383a45;fill-opacity:1;fill-rule:nonzero;stroke:none"
           d="M 0,0 -1.146,1.026 C -0.959,1.236 3.503,6.142 7.44,6.077 8.747,6.046 9.849,5.487 10.714,4.418 L 9.518,3.45 C 8.942,4.162 8.25,4.518 7.403,4.539 7.377,4.54 7.35,4.54 7.324,4.54 4.653,4.54 1.14,1.272 0,0" />
      </g>
      <g
         transform="matrix(0.35277777,0,0,-0.35277777,61.042876,57.6804)"
         id="g260">
        <path
           inkscape:connector-curvature="0"
           id="path262"
           style="fill:#383a45;fill-opacity:1;fill-rule:nonzero;stroke:none"
           d="m 0,0 c -2.715,0.895 -4.875,0.028 -4.896,0.019 l -0.586,1.423 c 0.11,0.045 2.715,1.091 5.964,0.019 z" />
      </g>
      <g
         transform="matrix(0.35277777,0,0,-0.35277777,-382.692,1125.5344)"
         id="g264">
        <g
           id="g266" />
        <g
           id="g278">
          <g
             style="opacity:0.30000299"
             id="g276"
             clip-path="url(#clipPath270)">
            <g
               id="g274"
               transform="translate(1234.3438,3102.6177)">
              <path
                 inkscape:connector-curvature="0"
                 id="path272"
                 style="fill:#4b6d79;fill-opacity:1;fill-rule:nonzero;stroke:none"
                 d="m 0,0 c 0,0 8.219,5.369 16.549,-0.739 8.329,-6.108 24.559,-30.159 33.241,-17.37 0,0 -3.951,15.854 -16.167,20.291 C 21.407,6.619 12.326,6.847 0,0" />
            </g>
          </g>
        </g>
      </g>
      <g
         transform="matrix(0.35277777,0,0,-0.35277777,68.600346,41.268295)"
         id="g280">
        <path
           inkscape:connector-curvature="0"
           id="path282"
           style="fill:#547984;fill-opacity:1;fill-rule:nonzero;stroke:none"
           d="m 0,0 c -2.934,0 -6.273,3.55 -10.437,7.976 -4.09,4.348 -9.181,9.759 -15.284,13.114 C -40.735,29.344 -54.266,5.244 -54.4,5 l -0.674,0.372 c 0.138,0.251 14.039,25.019 29.723,16.393 6.21,-3.413 11.347,-8.874 15.475,-13.262 4.268,-4.536 7.625,-8.12 10.301,-7.7 C 1.7,1.003 2.818,2.15 3.843,4.31 L 4.539,3.979 C 3.396,1.573 2.091,0.286 0.545,0.042 0.364,0.014 0.183,0 0,0" />
      </g>
      <g
         transform="matrix(0.35277777,0,0,-0.35277777,68.709226,39.951411)"
         id="g284">
        <path
           inkscape:connector-curvature="0"
           id="path286"
           style="fill:#547984;fill-opacity:1;fill-rule:nonzero;stroke:none"
           d="m 0,0 c -3.312,0 -5.483,2.978 -8.641,7.304 -2.841,3.898 -6.38,8.748 -12.298,13.847 -4.784,4.122 -9.643,5.625 -14.449,4.471 C -47.926,22.606 -56.272,2.48 -56.355,2.278 l -0.713,0.29 c 0.021,0.052 2.146,5.219 5.824,10.694 3.412,5.08 8.901,11.478 15.676,13.108 5.06,1.216 10.15,-0.343 15.131,-4.636 5.986,-5.157 9.552,-10.047 12.419,-13.976 C -3.464,1.515 -1.383,-1.333 4.82,2.531 L 5.228,1.877 C 3.143,0.579 1.46,0 0,0" />
      </g>
      <g
         transform="matrix(0.35277777,0,0,-0.35277777,69.892256,38.527037)"
         id="g288">
        <path
           inkscape:connector-curvature="0"
           id="path290"
           style="fill:#547984;fill-opacity:1;fill-rule:nonzero;stroke:none"
           d="m 0,0 c -0.057,0 -0.114,0.002 -0.173,0.005 -2.051,0.105 -5.665,2.163 -11.242,11.37 -9.499,15.683 -22.931,13.361 -25.527,12.736 l -0.181,0.748 c 2.687,0.646 16.589,3.056 26.366,-13.085 C -5.096,2.429 -1.692,0.872 -0.166,0.775 0.874,0.711 1.347,1.281 1.365,1.306 L 1.978,0.838 C 1.95,0.803 1.328,0 0,0" />
      </g>
      <g
         transform="matrix(0.35277777,0,0,-0.35277777,52.181736,38.391147)"
         id="g292">
        <path
           inkscape:connector-curvature="0"
           id="path294"
           style="fill:#e9946f;fill-opacity:1;fill-rule:nonzero;stroke:none"
           d="m 0,0 c 0,0 -6.65,-5.532 -6.694,-16.745 -0.045,-11.213 0.629,-39.87 13.202,-38.035 0,0 -4.201,-5.076 -9.869,3.794 -5.668,8.869 -9.119,25.414 -3.333,45.669 0,0 5.312,6.829 6.694,5.317" />
      </g>
      <g
         transform="matrix(0.35277777,0,0,-0.35277777,69.816486,73.00436)"
         id="g296">
        <path
           inkscape:connector-curvature="0"
           id="path298"
           style="fill:#383a45;fill-opacity:1;fill-rule:nonzero;stroke:none"
           d="m 0,0 c 0,0 -2.009,-118.856 -1.033,-129.528 h 40.092 c 0,0 12.909,76.034 8.582,94.139 C 41.576,-10.015 0,0 0,0" />
      </g>
      <g
         transform="matrix(0.35277777,0,0,-0.35277777,50.561136,73.30976)"
         id="g300">
        <path
           inkscape:connector-curvature="0"
           id="path302"
           style="fill:#383a45;fill-opacity:1;fill-rule:nonzero;stroke:none"
           d="m 0,0 c 0,0 7.201,-117.991 6.225,-128.662 h -39.682 c 0,0 -18.511,76.034 -14.184,94.139 C -41.576,-9.149 0,0 0,0" />
      </g>
      <g
         transform="matrix(0.35277777,0,0,-0.35277777,36.871726,108.64059)"
         id="g304">
        <path
           inkscape:connector-curvature="0"
           id="path306"
           style="fill:#547984;fill-opacity:1;fill-rule:nonzero;stroke:none"
           d="m 0,0 0.092,1.322 c 0.012,0.168 1.402,16.92 21.183,27.625 l 0.367,-0.676 C 5.498,19.533 1.841,6.769 1.06,2.622 7.437,9.859 27.035,22.262 27.909,22.813 l 0.41,-0.65 C 28.096,22.021 5.854,7.946 0.785,1.066 Z" />
      </g>
      <g
         transform="matrix(0.35277777,0,0,-0.35277777,49.867636,101.58313)"
         id="g308">
        <path
           inkscape:connector-curvature="0"
           id="path310"
           style="fill:#547984;fill-opacity:1;fill-rule:nonzero;stroke:none"
           d="m 0,0 c -9.862,20.971 -15.698,46.932 -15.756,47.191 l 0.752,0.167 C -14.946,47.1 -9.129,21.22 0.697,0.328 Z" />
      </g>
      <g
         transform="matrix(0.35277777,0,0,-0.35277777,74.021556,104.19298)"
         id="g312">
        <path
           inkscape:connector-curvature="0"
           id="path314"
           style="fill:#f6bc9f;fill-opacity:1;fill-rule:nonzero;stroke:none"
           d="m 0,0 c 0,0 -59.071,-32.392 -80.582,-33.979 -21.512,-1.586 -24.249,22.666 -24.249,22.666 0,0 26.757,13.391 40.787,19.494 0,0 31.61,9.016 66.815,7.82 C 2.771,16.001 7.175,5.973 0,0" />
      </g>
      <g
         transform="matrix(0.35277777,0,0,-0.35277777,45.967786,103.82246)"
         id="g316">
        <path
           inkscape:connector-curvature="0"
           id="path318"
           style="fill:#e9946f;fill-opacity:1;fill-rule:nonzero;stroke:none"
           d="m 0,0 c 0,0 -19.689,-8.844 -18.635,-17.631 1.054,-8.786 6.682,-18.037 23.548,-13.331 16.865,4.706 64.58,31.804 76.747,32.256 l 0.633,-2.359 c 0,0 -26.247,-12.502 -38.152,-17.868 -11.907,-5.366 -59.617,-40.473 -69.45,6.57 0,0 4.235,1.83 25.309,12.363" />
      </g>
      <g
         transform="matrix(0.35277777,0,0,-0.35277777,79.686336,69.336706)"
         id="g320">
        <path
           inkscape:connector-curvature="0"
           id="path322"
           style="fill:#f6bc9f;fill-opacity:1;fill-rule:nonzero;stroke:none"
           d="m 0,0 c 0,0 -15.113,26.284 -22.087,29.177 -6.974,2.894 -23.076,-3.109 -23.076,-3.109 l 2.122,-5.38 c 0,0 20.576,10.122 24.278,-5.412 0,0 -11.708,2.8 -16.769,-2.823 -5.278,-5.862 -4.931,-14.947 -4.931,-14.947 l 6.221,-1.266 c 0,0 -2.286,14.184 11.661,14.718 0,0 -11.808,-1.371 -8.823,-17.077 l 5.513,-1.554 c 0,0 -1.802,15.915 7.828,15.417 0,0 -10.217,-2.709 -4.719,-15.672 l 5.104,0.457 c 0,0 -4.239,9.51 1.407,11.147 0,0 -0.751,-11.147 6.921,-17.707 0,0 -3.283,-29.633 -4.794,-48.483 -1.863,-23.253 -12.247,-83.897 34.041,-57.727 0,0 -6.754,98.81 -19.897,120.241" />
      </g>
      <g
         transform="matrix(0.35277777,0,0,-0.35277777,64.758386,61.668094)"
         id="g324">
        <path
           inkscape:connector-curvature="0"
           id="path326"
           style="fill:#383a45;fill-opacity:1;fill-rule:nonzero;stroke:none"
           d="M 0,0 -0.352,0.684 C 1.384,1.579 3.317,2.789 3.606,3.262 3.182,3.502 0.771,3.66 -1.291,3.626 l -0.012,0.77 C 2.24,4.457 4.152,4.146 4.374,3.48 4.461,3.221 4.724,2.433 0,0" />
      </g>
      <g
         transform="matrix(0.35277777,0,0,-0.35277777,68.542826,60.468333)"
         id="g328">
        <path
           inkscape:connector-curvature="0"
           id="path330"
           style="fill:#383a45;fill-opacity:1;fill-rule:nonzero;stroke:none"
           d="m 0,0 -0.408,4 0.765,0.078 0.409,-4 z" />
      </g>
      <g
         transform="matrix(0.35277777,0,0,-0.35277777,69.118166,60.608562)"
         id="g332">
        <path
           inkscape:connector-curvature="0"
           id="path334"
           style="fill:#383a45;fill-opacity:1;fill-rule:nonzero;stroke:none"
           d="M 0,0 -0.326,4.408 0.442,4.465 0.769,0.057 Z" />
      </g>
      <g
         transform="matrix(0.35277777,0,0,-0.35277777,69.907076,60.468333)"
         id="g336">
        <path
           inkscape:connector-curvature="0"
           id="path338"
           style="fill:#383a45;fill-opacity:1;fill-rule:nonzero;stroke:none"
           d="m 0,0 -0.765,0.078 0.408,4 L 0.408,4 Z" />
      </g>
      <g
         transform="matrix(0.35277777,0,0,-0.35277777,67.200966,70.133914)"
         id="g340">
        <path
           inkscape:connector-curvature="0"
           id="path342"
           style="fill:#383a45;fill-opacity:1;fill-rule:nonzero;stroke:none"
           d="M 0,0 -0.77,0.022 C -0.708,2.063 -0.904,5.534 -1.687,6.159 -2.15,6.095 -3.013,3.666 -3.517,1.081 l -0.755,0.147 c 0.238,1.22 1.106,5.235 2.294,5.671 0.264,0.099 0.54,0.048 0.773,-0.139 C 0.103,5.714 0.028,0.945 0,0" />
      </g>
      <g
         transform="matrix(0.35277777,0,0,-0.35277777,70.051806,71.370505)"
         id="g344">
        <path
           inkscape:connector-curvature="0"
           id="path346"
           style="fill:#383a45;fill-opacity:1;fill-rule:nonzero;stroke:none"
           d="M 0,0 -0.77,0.014 C -0.738,1.772 -1.045,4.477 -1.799,4.699 -1.87,4.719 -1.916,4.71 -1.975,4.668 -2.504,4.288 -2.81,2.277 -2.856,0.972 L -3.626,1 c 0.022,0.588 0.18,3.557 1.201,4.292 0.254,0.183 0.545,0.233 0.842,0.145 C 0.007,4.97 0.015,0.826 0,0" />
      </g>
      <g
         transform="matrix(0.35277777,0,0,-0.35277777,71.825306,71.771719)"
         id="g348">
        <path
           inkscape:connector-curvature="0"
           id="path350"
           style="fill:#383a45;fill-opacity:1;fill-rule:nonzero;stroke:none"
           d="M 0,0 C -0.114,1.989 -0.047,4.405 0.916,4.623 1.45,4.743 2.137,4.395 3.497,1.063 L 2.785,0.771 C 1.607,3.657 1.104,3.857 1.052,3.871 0.824,3.666 0.664,1.872 0.769,0.043 Z" />
      </g>
      <g
         transform="matrix(0.35277777,0,0,-0.35277777,68.785346,65.747791)"
         id="g352">
        <path
           inkscape:connector-curvature="0"
           id="path354"
           style="fill:#383a45;fill-opacity:1;fill-rule:nonzero;stroke:none"
           d="m 0,0 c -0.416,0.886 -1.666,2.487 -1.679,2.503 l 0.607,0.475 C -1.02,2.91 0.244,1.292 0.697,0.326 Z" />
      </g>
      <g
         transform="matrix(0.35277777,0,0,-0.35277777,68.324416,65.940022)"
         id="g356">
        <path
           inkscape:connector-curvature="0"
           id="path358"
           style="fill:#383a45;fill-opacity:1;fill-rule:nonzero;stroke:none"
           d="m 0,0 c -0.079,0.359 -1.094,1.429 -1.987,2.216 l 0.508,0.577 c 0.48,-0.422 2.06,-1.86 2.231,-2.626 z" />
      </g>
      <g
         transform="matrix(0.35277777,0,0,-0.35277777,70.838616,67.228471)"
         id="g360">
        <path
           inkscape:connector-curvature="0"
           id="path362"
           style="fill:#383a45;fill-opacity:1;fill-rule:nonzero;stroke:none"
           d="m 0,0 c -0.878,0.434 -2.853,0.908 -2.873,0.912 l 0.179,0.749 c 0.085,-0.02 2.08,-0.498 3.036,-0.971 z" />
      </g>
      <g
         transform="matrix(0.35277777,0,0,-0.35277777,70.598166,67.666021)"
         id="g364">
        <path
           inkscape:connector-curvature="0"
           id="path366"
           style="fill:#383a45;fill-opacity:1;fill-rule:nonzero;stroke:none"
           d="m 0,0 c -0.286,0.23 -1.746,0.437 -2.936,0.495 l 0.039,0.768 c 0.638,-0.031 2.77,-0.172 3.38,-0.665 z" />
      </g>
      <g
         transform="matrix(0.35277777,0,0,-0.35277777,72.880196,68.249094)"
         id="g368">
        <path
           inkscape:connector-curvature="0"
           id="path370"
           style="fill:#383a45;fill-opacity:1;fill-rule:nonzero;stroke:none"
           d="m 0,0 c -0.803,0.342 -2.65,0.65 -2.668,0.653 l 0.124,0.759 c 0.08,-0.013 1.958,-0.326 2.846,-0.704 z" />
      </g>
      <g
         transform="matrix(0.35277777,0,0,-0.35277777,72.616676,68.665265)"
         id="g372">
        <path
           inkscape:connector-curvature="0"
           id="path374"
           style="fill:#383a45;fill-opacity:1;fill-rule:nonzero;stroke:none"
           d="m 0,0 c -0.238,0.18 -1.604,0.276 -2.734,0.253 l -0.016,0.77 c 0.609,0.015 2.646,0.02 3.214,-0.41 z" />
      </g>
      <g
         transform="matrix(0.35277777,0,0,-0.35277777,76.073826,77.187565)"
         id="g376">
        <path
           inkscape:connector-curvature="0"
           id="path378"
           style="fill:#e9946f;fill-opacity:1;fill-rule:nonzero;stroke:none"
           d="m 0,0 c 0,0 -8.864,-83.097 3.219,-93.536 12.082,-10.439 26.591,0 26.591,0 l 0.328,-4.451 c 0,0 -26.429,-20.8 -34.34,7.249 C -10.28,-69.188 0,0 0,0" />
      </g>
      <g
         transform="matrix(0.35277777,0,0,-0.35277777,79.049326,57.337783)"
         id="g380">
        <path
           inkscape:connector-curvature="0"
           id="path382"
           style="fill:#f5efdb;fill-opacity:1;fill-rule:nonzero;stroke:none"
           d="m 0,0 c 0,-3.179 -2.577,-5.757 -5.757,-5.757 -3.18,0 -5.757,2.578 -5.757,5.757 0,3.18 2.577,5.757 5.757,5.757 C -2.577,5.757 0,3.18 0,0" />
      </g>
    </g>
  </g>
</svg>
