<svg id="Warstwa_1" data-name="Warstwa 1" xmlns="http://www.w3.org/2000/svg" viewBox="0 0 124 123.63"><defs><style>.cls-1{fill:#0d72b9;}.cls-2{fill:#2e368e;}</style></defs><title>Obszar roboczy 10</title><path class="cls-1" d="M17,103.83A2.16,2.16,0,0,0,14.84,106h0A2.17,2.17,0,1,0,17,103.83Z"/><path class="cls-2" d="M114.84,6H97.52a2.16,2.16,0,0,0-2.16,2.16v2.26h-2.9a2.16,2.16,0,1,0,0,4.32l2.92,0V37.21c-5.67,3.57-10.78,1.51-16.18-.66-3.56-1.44-7.24-2.92-10.91-2.46-1.16.15-4.29.6-7.6,1.08-3.13.46-6.38.93-7.49,1.07a2.13,2.13,0,0,1-1.59-.45,2.18,2.18,0,0,1-.84-1.48c0-.38-.18-1.4,2.53-2.66A109.16,109.16,0,0,1,70.07,25.4,2.16,2.16,0,1,0,69,21.22a112.39,112.39,0,0,0-17.5,6.51,9.51,9.51,0,0,0-4.09,3.21l-21.7,5.91c-2.29.58-3.46-.33-3.79-1.37a2.42,2.42,0,0,1,1.7-3c1.7-.64,5.75-2.43,10.88-4.69,6.8-3,15.26-6.71,22-9.45,8-3.25,10.46-3.74,18.67-3.71h0a2.17,2.17,0,0,0,0-4.33c-8.76,0-11.8.58-20.31,4-6.81,2.76-15.3,6.5-22.12,9.5-4.89,2.15-9.11,4-10.69,4.61h0a6.69,6.69,0,0,0-4.25,8.35c.93,2.91,4.14,5.47,9,4.24h0l19.8-5.4a6.55,6.55,0,0,0,2.34,3.58,6.41,6.41,0,0,0,4.79,1.32c1.16-.14,4.27-.59,7.57-1.07,3.15-.46,6.4-.93,7.52-1.07,2.55-.32,5.56.89,8.75,2.17,3.37,1.36,7.22,2.91,11.38,2.91a15.75,15.75,0,0,0,6.42-1.36v.68A2.17,2.17,0,0,0,97.52,45h17.32A2.17,2.17,0,0,0,117,42.79V8.16A2.16,2.16,0,0,0,114.84,6Zm-2.17,34.63h-13v-28h0V10.33h13Z"/><path class="cls-1" d="M106.18,19a2.17,2.17,0,0,0,2.16-2.17h0A2.17,2.17,0,1,0,106.18,19Z"/><path class="cls-1" d="M46.44,76.56a15.15,15.15,0,0,0,12.43-6.5h8a2.12,2.12,0,0,0,1.53-.63l3.7-3.69h2.53l3.7,3.69a2.12,2.12,0,0,0,1.53.63h3.39a2.16,2.16,0,0,0,1.53-.63l6.49-6.49a2.16,2.16,0,0,0,.63-1.53v-6.5a2.16,2.16,0,0,0-2.16-2.16H58.87A15.15,15.15,0,1,0,46.44,76.56ZM87.57,57.08v3.43l-5.23,5.23h-1.6L77.05,62a2.2,2.2,0,0,0-1.53-.63H71.19a2.2,2.2,0,0,0-1.53.63L66,65.74H61a15.2,15.2,0,0,0,0-8.66ZM46.44,50.59A10.82,10.82,0,1,1,35.62,61.41,10.84,10.84,0,0,1,46.44,50.59Z"/><path class="cls-2" d="M42.11,63.57A2.17,2.17,0,1,0,40,61.41h0A2.16,2.16,0,0,0,42.11,63.57Z"/><path class="cls-1" d="M83.8,14.68h0a2.17,2.17,0,1,0-2.17-2.16A2.16,2.16,0,0,0,83.8,14.68Z"/><path class="cls-2" d="M96.44,81.77h0l-19.81,5.4a6.55,6.55,0,0,0-2.33-3.58,6.42,6.42,0,0,0-4.79-1.32c-1.16.15-4.28.6-7.58,1.08-3.14.45-6.39.93-7.51,1.07-2.56.32-5.57-.89-8.75-2.18-5.05-2-11.16-4.49-17.8-1.55V80a2.16,2.16,0,0,0-2.16-2.16H8.35A2.16,2.16,0,0,0,6.19,80v34.63a2.16,2.16,0,0,0,2.16,2.16H25.67a2.16,2.16,0,0,0,2.16-2.16v-2.26l2.89,0h0a2.17,2.17,0,0,0,0-4.33l-2.92,0V85.61C33.5,82,38.61,84.09,44,86.27c3.56,1.43,7.24,2.91,10.91,2.45,1.16-.15,4.29-.6,7.59-1.08,3.14-.46,6.38-.93,7.5-1.07A2.13,2.13,0,0,1,71.6,87a2.2,2.2,0,0,1,.84,1.48c0,.38.18,1.4-2.54,2.66a109.07,109.07,0,0,1-16.78,6.25,2.17,2.17,0,1,0,1.11,4.19,114.46,114.46,0,0,0,17.5-6.51,9.58,9.58,0,0,0,4.09-3.21L97.52,86c2.28-.57,3.45.34,3.79,1.38a2.41,2.41,0,0,1-1.7,3c-1.7.65-5.75,2.43-10.88,4.69-6.8,3-15.26,6.72-22,9.45-8,3.26-10.46,3.75-18.67,3.72h0a2.16,2.16,0,1,0,0,4.32h.52c8.36,0,11.45-.65,19.79-4,6.8-2.76,15.3-6.49,22.12-9.5,4.88-2.15,9.1-4,10.69-4.61h0A6.71,6.71,0,0,0,105.43,86C104.5,83.11,101.28,80.54,96.44,81.77ZM10.52,112.48V82.18h13v28h0v2.28Z"/><path class="cls-1" d="M39.39,108.13h0a2.17,2.17,0,1,0,2.16,2.17A2.17,2.17,0,0,0,39.39,108.13Z"/></svg>