<svg id="Warstwa_1" data-name="Warstwa 1" xmlns="http://www.w3.org/2000/svg" viewBox="0 0 124 123.63"><defs><style>.cls-1,.cls-2{fill:#fff;}.cls-1{opacity:0.8;}</style></defs><title>Obszar roboczy 10 kopia 5</title><path class="cls-1" d="M59.76,38.28c-.65,0-.9-.14-2.65-1.22-.83-.52-2.12-1.35-3.51-2.34-3.72-2.66-6-4.89-7-6.83a11.58,11.58,0,0,1-1-7.57,9.59,9.59,0,0,1,3.87-6A8,8,0,0,1,56,13.18a7.34,7.34,0,0,1,3.72,2.24,7.34,7.34,0,0,1,3.72-2.24A8.07,8.07,0,0,1,70,14.34a9.59,9.59,0,0,1,3.87,6,11.58,11.58,0,0,1-1,7.57c-1,1.94-3.25,4.17-7,6.83-1.39,1-2.68,1.82-3.52,2.34C60.67,38.14,60.42,38.28,59.76,38.28ZM54,17.24a3.72,3.72,0,0,0-2.11.65,5.33,5.33,0,0,0-2.08,3.34A7.26,7.26,0,0,0,50.47,26c1.19,2.38,6.78,6.15,9.29,7.68,2.51-1.53,8.1-5.3,9.29-7.68a7.2,7.2,0,0,0,.64-4.74,5.38,5.38,0,0,0-2.09-3.34,3.83,3.83,0,0,0-3.13-.53c-.8.19-1.21.59-2.38,1.83l-.78.83a2.16,2.16,0,0,1-1.55.65A2.14,2.14,0,0,1,58.22,20l-.79-.83c-1.17-1.24-1.57-1.64-2.37-1.83A4.66,4.66,0,0,0,54,17.24Z"/><path class="cls-1" d="M42.6,81.89a3,3,0,0,1-.42,0,1.87,1.87,0,0,1-.4-.13,1.9,1.9,0,0,1-.37-.2,1.64,1.64,0,0,1-.33-.26,2.16,2.16,0,0,1-.27-.33,2.58,2.58,0,0,1-.19-.37,1.87,1.87,0,0,1-.13-.4,3,3,0,0,1,0-.42,2.15,2.15,0,0,1,1-1.79c.12-.07.24-.14.37-.2a2.64,2.64,0,0,1,.4-.12,2.37,2.37,0,0,1,.84,0,2.64,2.64,0,0,1,.4.12,3.22,3.22,0,0,1,.37.2,2.15,2.15,0,0,1,1,1.79,2,2,0,0,1,0,.42,2.64,2.64,0,0,1-.12.4c-.06.13-.13.25-.2.37a2.16,2.16,0,0,1-.27.33,2.45,2.45,0,0,1-.7.46,1.87,1.87,0,0,1-.4.13A3,3,0,0,1,42.6,81.89Z"/><path class="cls-2" d="M117,105.7a9.25,9.25,0,0,0-9.25-8.85h-.63V71.54l.57.41a2.1,2.1,0,0,0,1.27.42,2.23,2.23,0,0,0,1-.23,2.16,2.16,0,0,0,1.18-1.92V59.5a2.14,2.14,0,0,0-.88-1.73L81.44,36.62a2.13,2.13,0,0,0-2.54,0L66,46.11V42.78a2.15,2.15,0,0,0-2.15-2.15H55.7a2.15,2.15,0,0,0-2.15,2.15V55.24l-3.44,2.53a2.14,2.14,0,0,0-.88,1.73v4.12c-7-3.06-17.33-2.84-23.54-2.33v-2a2.15,2.15,0,0,0-2.15-2.15H9.15A2.15,2.15,0,0,0,7,59.25V93.52a2.15,2.15,0,0,0,2.15,2.15H23.54a2.15,2.15,0,0,0,2.15-2.15V88.33h3.13a41.65,41.65,0,0,1,1.69,7.24c2.16,12.56,9.8,19.48,21.5,19.48h55.88A9.1,9.1,0,0,0,117,105.7Zm-14.17-8.85H90.43V75.28a2.15,2.15,0,0,0-2.14-2.15H72.05a2.15,2.15,0,0,0-2.14,2.15V80.6L56.6,69,80.17,51.74l22.66,16.64Zm-17,0a9.06,9.06,0,0,0-3.15-5.07L74.2,84.35V77.43H86.14V96.85Zm-28-51.92h3.83v4.33l-3.83,2.82ZM53.53,60.59,80.17,41l26.64,19.57V66L81.44,47.34a2.13,2.13,0,0,0-2.54,0L53.53,65.92ZM21.39,91.37H11.3v-30H21.39Zm90,17.94a4.77,4.77,0,0,1-3.45,1.46l-55.88,0c-12,0-16-8.65-17.26-15.9a58.88,58.88,0,0,0-1.53-6.93C32.8,86.56,32,84,29.84,84H25.69V65.6c6.22-.53,19.57-1,24.87,3.84l0,0L79.94,95.05l.07.06a4.81,4.81,0,0,1-6,7.52L49.46,82.72a2.15,2.15,0,0,0-2.71,3.33L71.31,106A9,9,0,0,0,77,108a8.85,8.85,0,0,0,1-.06,9.13,9.13,0,0,0,7.81-6.76h21.93a4.91,4.91,0,0,1,5,4.67A4.78,4.78,0,0,1,111.34,109.31Z"/></svg>