<svg id="Warstwa_1" data-name="Warstwa 1" xmlns="http://www.w3.org/2000/svg" viewBox="0 0 124 123.63"><defs><style>.cls-1{fill:#fff;}.cls-2{opacity:0.8;}</style></defs><title>Obszar roboczy 10 kopia 3</title><path class="cls-1" d="M120.59,57.49a8.72,8.72,0,0,0-8.68-6.12l-.84,0a9.74,9.74,0,0,0-6.52,2.85l-13,12.87A9.13,9.13,0,0,0,83.91,63H65.58a37.35,37.35,0,0,1-10-1.34,24.67,24.67,0,0,0-23,4.81,33.1,33.1,0,0,0-6.11,6.59,8.24,8.24,0,0,0-10.64,1.06L4,86.42a2.3,2.3,0,0,0,0,3.24l9.53,9.4a2.31,2.31,0,0,0,3.24-3.28L8.88,88,19.15,77.31a3.65,3.65,0,0,1,2.56-1.11,3.58,3.58,0,0,1,2.6,1L42.64,95a3.66,3.66,0,0,1,.07,5.16L32.62,110.52,30,108.05a2.31,2.31,0,0,0-3.18,3.34l4.25,4a2.29,2.29,0,0,0,3.24-.06l11.68-12a8.19,8.19,0,0,0,2.34-5.87,8.31,8.31,0,0,0-.56-2.9l4.11-.48a50.65,50.65,0,0,1,5.78-.33h27.9c.43,0,.86,0,1.28-.06l2.68-.22a15.54,15.54,0,0,0,10.51-5.4L118.85,66A9,9,0,0,0,120.59,57.49ZM115.34,63,96.54,85.13a10.87,10.87,0,0,1-7.38,3.8l-2.68.22c-.3,0-.6,0-.9,0H57.68a55.35,55.35,0,0,0-6.31.36l-6.67.78L30,76.11a28.18,28.18,0,0,1,5.53-6.06,20,20,0,0,1,18.83-3.94A42.37,42.37,0,0,0,65.58,67.6H83.91A4.52,4.52,0,0,1,87.16,69a4.46,4.46,0,0,1,1.17,2.25,2.57,2.57,0,0,0,.08.62,4.51,4.51,0,0,1-1,3.08l-.07.09a4.49,4.49,0,0,1-3.52,1.68h-16a2.31,2.31,0,1,0,0,4.61h16A9.06,9.06,0,0,0,91,77.91l.08-.09a9.13,9.13,0,0,0,2-5.67L107.8,57.53A5.13,5.13,0,0,1,111.26,56l.84,0a4.1,4.1,0,0,1,4.09,2.88A4.37,4.37,0,0,1,115.34,63Z"/><g class="cls-2"><path class="cls-1" d="M58.08,77.05l-.11,0a2.31,2.31,0,0,0,.52,4.55,2.46,2.46,0,0,0,.53-.06l.12,0a2.31,2.31,0,0,0-1.06-4.49Z"/><path class="cls-1" d="M21.36,101.44l-.11,0a2.31,2.31,0,0,0,.52,4.55,2.39,2.39,0,0,0,.53-.06l.12,0a2.31,2.31,0,1,0-1.06-4.49Z"/><path class="cls-1" d="M70.79,57A24.39,24.39,0,1,0,55.74,13.45,24.1,24.1,0,0,0,53,16a23.79,23.79,0,0,0-3.34,4.52A24.4,24.4,0,0,0,70.79,57ZM53.62,22.82a19.33,19.33,0,0,1,2.71-3.67,20.08,20.08,0,0,1,2.25-2.07,19.6,19.6,0,0,1,12.21-4.21,19.77,19.77,0,1,1-17.17,10Z"/></g><path class="cls-1" d="M70.84,29.93a2.22,2.22,0,0,1-.17.85,3.39,3.39,0,0,1-.4.71l-6.09,8H70.7v3.24H59.16V41a2,2,0,0,1,.15-.67,3.18,3.18,0,0,1,.41-.77l6.15-8.14H59.55V28.18H70.84Z"/><path class="cls-1" d="M79.56,21.71v7.68l2.11-.83V31a.87.87,0,0,1-.56.87l-1.55.65V42.77H75.2V34l-2.11.82V32.28a.76.76,0,0,1,.5-.76l1.61-.67V21.71Z"/></svg>